<?xml version="1.0" encoding="UTF-8" standalone="no"?>
<svg
   xmlns:dc="http://purl.org/dc/elements/1.1/"
   xmlns:cc="http://creativecommons.org/ns#"
   xmlns:rdf="http://www.w3.org/1999/02/22-rdf-syntax-ns#"
   xmlns:svg="http://www.w3.org/2000/svg"
   xmlns="http://www.w3.org/2000/svg"
   xmlns:sodipodi="http://sodipodi.sourceforge.net/DTD/sodipodi-0.dtd"
   xmlns:inkscape="http://www.inkscape.org/namespaces/inkscape"
   sodipodi:docname="Bar-fill.svg"
   inkscape:version="1.0 (4035a4fb49, 2020-05-01)"
   id="svg8"
   version="1.1"
   viewBox="0 0 551.00012 53.000099"
   height="53.000099mm"
   width="551.00012mm">
  <defs
     id="defs2" />
  <sodipodi:namedview
     inkscape:window-maximized="1"
     inkscape:window-y="-8"
     inkscape:window-x="-8"
     inkscape:window-height="1017"
     inkscape:window-width="1920"
     showgrid="false"
     inkscape:document-rotation="0"
     inkscape:current-layer="layer1"
     inkscape:document-units="mm"
     inkscape:cy="307.53974"
     inkscape:cx="1017.5942"
     inkscape:zoom="0.50021951"
     inkscape:pageshadow="2"
     inkscape:pageopacity="0.0"
     borderopacity="1.0"
     bordercolor="#666666"
     pagecolor="#ffffff"
     id="base" />
  <metadata
     id="metadata5">
    <rdf:RDF>
      <cc:Work
         rdf:about="">
        <dc:format>image/svg+xml</dc:format>
        <dc:type
           rdf:resource="http://purl.org/dc/dcmitype/StillImage" />
        <dc:title></dc:title>
      </cc:Work>
    </rdf:RDF>
  </metadata>
  <g
     transform="translate(42.773055,-15.607724)"
     style="display:inline"
     id="layer1"
     inkscape:groupmode="layer"
     inkscape:label="fill">
    <path
       d="m -16.525207,17.107774 c -0.0046,0 -0.0088,0.0015 -0.01344,0.0016 a 25,25 0 0 0 -24.734408,24.998475 25,25 0 0 0 24.730274,24.998474 c 0.006,1.4e-4 0.01155,0.0015 0.01757,0.0015 h 498.252271 0.25167 c 0.006,0 0.0123,-0.0019 0.0186,-0.0021 A 25,25 0 0 0 506.72709,42.107799 25,25 0 0 0 481.99527,17.109324 c -0.006,-1.23e-4 -0.0109,-0.0016 -0.0165,-0.0016 h -0.25167 -0.12557 z"
       style="fill:#969696;fill-opacity:1;stroke:none;stroke-width:6.29814;stroke-linecap:round;stroke-linejoin:round;stroke-dashoffset:141.696"
       id="rect957" />
  </g>
  <g
     transform="translate(42.773055,-15.607724)"
     inkscape:label="outline"
     inkscape:groupmode="layer"
     id="g976"
     style="display:none">
    <path
       id="path974"
       style="fill:none;fill-opacity:1;stroke:#000000;stroke-width:3;stroke-linecap:round;stroke-linejoin:round;stroke-miterlimit:4;stroke-dasharray:none;stroke-dashoffset:141.696;stroke-opacity:1"
       d="m -16.525207,17.107774 c -0.0046,0 -0.0088,0.0015 -0.01344,0.0016 a 25,25 0 0 0 -24.734408,24.998475 25,25 0 0 0 24.730274,24.998474 c 0.006,1.4e-4 0.01155,0.0015 0.01757,0.0015 h 498.252271 0.25167 c 0.006,0 0.0123,-0.0019 0.0186,-0.0021 A 25,25 0 0 0 506.72709,42.107799 25,25 0 0 0 481.99527,17.109324 c -0.006,-1.23e-4 -0.0109,-0.0016 -0.0165,-0.0016 h -0.25167 -0.12557 z" />
  </g>
</svg>
